<?xml version="1.0" encoding="UTF-8"?>
<!DOCTYPE svg PUBLIC "-//W3C//DTD SVG 1.1//EN" "http://www.w3.org/Graphics/SVG/1.1/DTD/svg11.dtd">
<svg version="1.1" xmlns="http://www.w3.org/2000/svg" xmlns:xlink="http://www.w3.org/1999/xlink" x="0" y="0" width="419" height="302.334" viewBox="0, 0, 419, 302.334">
  <defs>
    <clipPath id="Clip_1">
      <path d="M25.35,261.725 L417.37,261.725 L417.37,121.585 L25.35,121.585 z"/>
    </clipPath>
    <clipPath id="Clip_2">
      <path d="M25.35,261.725 L417.37,261.725 L417.37,121.585 L25.35,121.585 z"/>
    </clipPath>
    <clipPath id="Clip_3">
      <path d="M25.35,261.725 L417.37,261.725 L417.37,121.585 L25.35,121.585 z"/>
    </clipPath>
    <clipPath id="Clip_4">
      <path d="M25.35,261.725 L417.37,261.725 L417.37,121.585 L25.35,121.585 z"/>
    </clipPath>
    <clipPath id="Clip_5">
      <path d="M25.35,261.725 L417.37,261.725 L417.37,121.585 L25.35,121.585 z"/>
    </clipPath>
    <clipPath id="Clip_6">
      <path d="M25.35,261.725 L417.37,261.725 L417.37,121.585 L25.35,121.585 z"/>
    </clipPath>
    <clipPath id="Clip_7">
      <path d="M24.63,101.305 L416.65,101.305 L416.65,18.765 L24.63,18.765 z"/>
    </clipPath>
    <clipPath id="Clip_8">
      <path d="M24.63,101.305 L416.65,101.305 L416.65,18.765 L24.63,18.765 z"/>
    </clipPath>
  </defs>
  <g id="Layer_1">
    <g>
      <path d="M46.973,120.001 L402.513,120.001 C409.175,120.001 414.576,125.765 414.576,132.876 L414.576,243.529 C414.576,250.64 409.175,256.404 402.513,256.404 L46.973,256.404 C40.311,256.404 34.91,250.64 34.91,243.529 L34.91,132.876 C34.91,125.765 40.311,120.001 46.973,120.001 z" fill="#F9F9F9"/>
      <path d="M46.973,120.001 L402.513,120.001 C409.175,120.001 414.576,125.765 414.576,132.876 L414.576,243.529 C414.576,250.64 409.175,256.404 402.513,256.404 L46.973,256.404 C40.311,256.404 34.91,250.64 34.91,243.529 L34.91,132.876 C34.91,125.765 40.311,120.001 46.973,120.001 z" fill-opacity="0" stroke="#E3E3E3" stroke-width="1" stroke-dasharray="2,2"/>
    </g>
    <g>
      <path d="M46.989,24.827 L402.497,24.827 C409.168,24.827 414.576,29.737 414.576,35.794 L414.576,96.495 C414.576,102.552 409.168,107.462 402.497,107.462 L46.989,107.462 C40.318,107.462 34.91,102.552 34.91,96.495 L34.91,35.794 C34.91,29.737 40.318,24.827 46.989,24.827 z" fill="#F9F9F9"/>
      <path d="M46.989,24.827 L402.497,24.827 C409.168,24.827 414.576,29.737 414.576,35.794 L414.576,96.495 C414.576,102.552 409.168,107.462 402.497,107.462 L46.989,107.462 C40.318,107.462 34.91,102.552 34.91,96.495 L34.91,35.794 C34.91,29.737 40.318,24.827 46.989,24.827 z" fill-opacity="0" stroke="#E3E3E3" stroke-width="1" stroke-dasharray="2,2"/>
    </g>
    <g clip-path="url(#Clip_1)">
      <path d="M87.678,262.225 L87.678,122.085" fill-opacity="0" stroke="#BEBEBE" stroke-width="1" stroke-linecap="square" stroke-linejoin="round"/>
    </g>
    <g>
      <path d="M87.678,262.225 L87.678,267.225" fill="#000000"/>
      <path d="M87.678,262.225 L87.678,267.225" fill-opacity="0" stroke="#000000" stroke-width="1.5" stroke-linejoin="round"/>
    </g>
    <text transform="matrix(1, 0, 0, 1, 87.178, 276.834)">
      <tspan x="-10" y="4.5" font-family="TimesNewRomanPSMT" font-size="16" fill="#000000">0.</tspan>
      <tspan x="2" y="4.5" font-family="TimesNewRomanPSMT" font-size="16" kerning="0" fill="#000000">1</tspan>
    </text>
    <g clip-path="url(#Clip_2)">
      <path d="M233.874,262.225 L233.874,122.085" fill-opacity="0" stroke="#BEBEBE" stroke-width="1" stroke-linecap="square" stroke-linejoin="round"/>
    </g>
    <g>
      <path d="M233.874,262.225 L233.874,267.225" fill="#000000"/>
      <path d="M233.874,262.225 L233.874,267.225" fill-opacity="0" stroke="#000000" stroke-width="1.5" stroke-linejoin="round"/>
    </g>
    <text transform="matrix(1, 0, 0, 1, 233.374, 276.834)">
      <tspan x="-4" y="4.5" font-family="TimesNewRomanPSMT" font-size="16" kerning="0" fill="#000000">1</tspan>
    </text>
    <g clip-path="url(#Clip_3)">
      <path d="M380.069,262.225 L380.069,122.085" fill-opacity="0" stroke="#BEBEBE" stroke-width="1" stroke-linecap="square" stroke-linejoin="round"/>
    </g>
    <g>
      <path d="M380.069,262.225 L380.069,267.225" fill="#000000"/>
      <path d="M380.069,262.225 L380.069,267.225" fill-opacity="0" stroke="#000000" stroke-width="1.5" stroke-linejoin="round"/>
    </g>
    <text transform="matrix(1, 0, 0, 1, 379.569, 276.834)">
      <tspan x="-8" y="4.5" font-family="TimesNewRomanPSMT" font-size="16" fill="#000000">1</tspan>
      <tspan x="0" y="4.5" font-family="TimesNewRomanPSMT" font-size="16" kerning="0" fill="#000000">0</tspan>
    </text>
    <g>
      <path d="M29.501,262.225 L29.501,267.225" fill="#000000"/>
      <path d="M29.501,262.225 L29.501,267.225" fill-opacity="0" stroke="#000000" stroke-width="1.5" stroke-linejoin="round"/>
    </g>
    <g>
      <path d="M43.669,262.225 L43.669,267.225" fill="#000000"/>
      <path d="M43.669,262.225 L43.669,267.225" fill-opacity="0" stroke="#000000" stroke-width="1.5" stroke-linejoin="round"/>
    </g>
    <g>
      <path d="M55.245,262.225 L55.245,267.225" fill="#000000"/>
      <path d="M55.245,262.225 L55.245,267.225" fill-opacity="0" stroke="#000000" stroke-width="1.5" stroke-linejoin="round"/>
    </g>
    <g>
      <path d="M65.032,262.225 L65.032,267.225" fill="#000000"/>
      <path d="M65.032,262.225 L65.032,267.225" fill-opacity="0" stroke="#000000" stroke-width="1.5" stroke-linejoin="round"/>
    </g>
    <g>
      <path d="M73.511,262.225 L73.511,267.225" fill="#000000"/>
      <path d="M73.511,262.225 L73.511,267.225" fill-opacity="0" stroke="#000000" stroke-width="1.5" stroke-linejoin="round"/>
    </g>
    <g>
      <path d="M80.989,262.225 L80.989,267.225" fill="#000000"/>
      <path d="M80.989,262.225 L80.989,267.225" fill-opacity="0" stroke="#000000" stroke-width="1.5" stroke-linejoin="round"/>
    </g>
    <g>
      <path d="M131.688,262.225 L131.688,267.225" fill="#000000"/>
      <path d="M131.688,262.225 L131.688,267.225" fill-opacity="0" stroke="#000000" stroke-width="1.5" stroke-linejoin="round"/>
    </g>
    <g>
      <path d="M157.431,262.225 L157.431,267.225" fill="#000000"/>
      <path d="M157.431,262.225 L157.431,267.225" fill-opacity="0" stroke="#000000" stroke-width="1.5" stroke-linejoin="round"/>
    </g>
    <g>
      <path d="M175.697,262.225 L175.697,267.225" fill="#000000"/>
      <path d="M175.697,262.225 L175.697,267.225" fill-opacity="0" stroke="#000000" stroke-width="1.5" stroke-linejoin="round"/>
    </g>
    <g>
      <path d="M189.865,262.225 L189.865,267.225" fill="#000000"/>
      <path d="M189.865,262.225 L189.865,267.225" fill-opacity="0" stroke="#000000" stroke-width="1.5" stroke-linejoin="round"/>
    </g>
    <g>
      <path d="M201.441,262.225 L201.441,267.225" fill="#000000"/>
      <path d="M201.441,262.225 L201.441,267.225" fill-opacity="0" stroke="#000000" stroke-width="1.5" stroke-linejoin="round"/>
    </g>
    <g>
      <path d="M211.228,262.225 L211.228,267.225" fill="#000000"/>
      <path d="M211.228,262.225 L211.228,267.225" fill-opacity="0" stroke="#000000" stroke-width="1.5" stroke-linejoin="round"/>
    </g>
    <g>
      <path d="M219.706,262.225 L219.706,267.225" fill="#000000"/>
      <path d="M219.706,262.225 L219.706,267.225" fill-opacity="0" stroke="#000000" stroke-width="1.5" stroke-linejoin="round"/>
    </g>
    <g>
      <path d="M227.184,262.225 L227.184,267.225" fill="#000000"/>
      <path d="M227.184,262.225 L227.184,267.225" fill-opacity="0" stroke="#000000" stroke-width="1.5" stroke-linejoin="round"/>
    </g>
    <g>
      <path d="M277.883,262.225 L277.883,267.225" fill="#000000"/>
      <path d="M277.883,262.225 L277.883,267.225" fill-opacity="0" stroke="#000000" stroke-width="1.5" stroke-linejoin="round"/>
    </g>
    <g>
      <path d="M303.627,262.225 L303.627,267.225" fill="#000000"/>
      <path d="M303.627,262.225 L303.627,267.225" fill-opacity="0" stroke="#000000" stroke-width="1.5" stroke-linejoin="round"/>
    </g>
    <g>
      <path d="M321.892,262.225 L321.892,267.225" fill="#000000"/>
      <path d="M321.892,262.225 L321.892,267.225" fill-opacity="0" stroke="#000000" stroke-width="1.5" stroke-linejoin="round"/>
    </g>
    <g>
      <path d="M336.06,262.225 L336.06,267.225" fill="#000000"/>
      <path d="M336.06,262.225 L336.06,267.225" fill-opacity="0" stroke="#000000" stroke-width="1.5" stroke-linejoin="round"/>
    </g>
    <g>
      <path d="M347.636,262.225 L347.636,267.225" fill="#000000"/>
      <path d="M347.636,262.225 L347.636,267.225" fill-opacity="0" stroke="#000000" stroke-width="1.5" stroke-linejoin="round"/>
    </g>
    <g>
      <path d="M357.423,262.225 L357.423,267.225" fill="#000000"/>
      <path d="M357.423,262.225 L357.423,267.225" fill-opacity="0" stroke="#000000" stroke-width="1.5" stroke-linejoin="round"/>
    </g>
    <g>
      <path d="M365.902,262.225 L365.902,267.225" fill="#000000"/>
      <path d="M365.902,262.225 L365.902,267.225" fill-opacity="0" stroke="#000000" stroke-width="1.5" stroke-linejoin="round"/>
    </g>
    <g>
      <path d="M373.38,262.225 L373.38,267.225" fill="#000000"/>
      <path d="M373.38,262.225 L373.38,267.225" fill-opacity="0" stroke="#000000" stroke-width="1.5" stroke-linejoin="round"/>
    </g>
    <text transform="matrix(1, 0, 0, 1, 367.608, 292.834)">
      <tspan x="-49.762" y="4.5" font-family="TimesNewRomanPSMT" font-size="16" fill="#000000">Render time (s</tspan>
      <tspan x="44.434" y="4.5" font-family="TimesNewRomanPSMT" font-size="16" kerning="0" fill="#000000">)</tspan>
    </text>
    <g clip-path="url(#Clip_4)">
      <path d="M25.85,238.868 L417.87,238.868" fill-opacity="0" stroke="#BEBEBE" stroke-width="1" stroke-linecap="square" stroke-linejoin="round"/>
    </g>
    <g>
      <path d="M25.85,238.868 L22.35,238.868" fill="#000000"/>
      <path d="M25.85,238.868 L22.35,238.868" fill-opacity="0" stroke="#000000" stroke-width="0.8" stroke-linejoin="round"/>
    </g>
    <text transform="matrix(1, 0, 0, 1, 10.35, 239.423)">
      <tspan x="-8" y="4.5" font-family="TimesNewRomanPSMT" font-size="16" fill="#000000">2</tspan>
      <tspan x="0" y="4.5" font-family="TimesNewRomanPSMT" font-size="16" kerning="0" fill="#000000">4</tspan>
    </text>
    <g clip-path="url(#Clip_5)">
      <path d="M25.85,192.155 L417.87,192.155" fill-opacity="0" stroke="#BEBEBE" stroke-width="1" stroke-linecap="square" stroke-linejoin="round"/>
    </g>
    <g>
      <path d="M25.85,192.155 L22.35,192.155" fill="#000000"/>
      <path d="M25.85,192.155 L22.35,192.155" fill-opacity="0" stroke="#000000" stroke-width="0.8" stroke-linejoin="round"/>
    </g>
    <text transform="matrix(1, 0, 0, 1, 10.35, 192.709)">
      <tspan x="-8" y="4.5" font-family="TimesNewRomanPSMT" font-size="16" fill="#000000">2</tspan>
      <tspan x="0" y="4.5" font-family="TimesNewRomanPSMT" font-size="16" kerning="0" fill="#000000">6</tspan>
    </text>
    <g clip-path="url(#Clip_6)">
      <path d="M25.85,145.441 L417.87,145.441" fill-opacity="0" stroke="#BEBEBE" stroke-width="1" stroke-linecap="square" stroke-linejoin="round"/>
    </g>
    <g>
      <path d="M25.85,145.441 L22.35,145.441" fill="#000000"/>
      <path d="M25.85,145.441 L22.35,145.441" fill-opacity="0" stroke="#000000" stroke-width="0.8" stroke-linejoin="round"/>
    </g>
    <text transform="matrix(1, 0, 0, 1, 10.35, 145.996)">
      <tspan x="-8" y="4.5" font-family="TimesNewRomanPSMT" font-size="16" fill="#000000">2</tspan>
      <tspan x="0" y="4.5" font-family="TimesNewRomanPSMT" font-size="16" kerning="0" fill="#000000">8</tspan>
    </text>
    <path d="M168.049,201.988 L211.61,172.068 L257.433,160.623 L302.369,158.194" fill-opacity="0" stroke="#E03E34" stroke-width="2" stroke-linecap="square" stroke-linejoin="round"/>
    <g>
      <path d="M168.049,204.988 C168.845,204.988 169.608,204.672 170.171,204.109 C170.733,203.546 171.049,202.783 171.049,201.988 C171.049,201.192 170.733,200.429 170.171,199.866 C169.608,199.304 168.845,198.988 168.049,198.988 C167.254,198.988 166.491,199.304 165.928,199.866 C165.366,200.429 165.049,201.192 165.049,201.988 C165.049,202.783 165.366,203.546 165.928,204.109 C166.491,204.672 167.254,204.988 168.049,204.988 z" fill="#E03E34"/>
      <path d="M168.049,204.988 C168.845,204.988 169.608,204.672 170.171,204.109 C170.733,203.546 171.049,202.783 171.049,201.988 C171.049,201.192 170.733,200.429 170.171,199.866 C169.608,199.304 168.845,198.988 168.049,198.988 C167.254,198.988 166.491,199.304 165.928,199.866 C165.366,200.429 165.049,201.192 165.049,201.988 C165.049,202.783 165.366,203.546 165.928,204.109 C166.491,204.672 167.254,204.988 168.049,204.988 z" fill-opacity="0" stroke="#E03E34" stroke-width="1" stroke-linejoin="round"/>
    </g>
    <g>
      <path d="M211.61,175.068 C212.406,175.068 213.169,174.752 213.731,174.189 C214.294,173.627 214.61,172.863 214.61,172.068 C214.61,171.272 214.294,170.509 213.731,169.947 C213.169,169.384 212.406,169.068 211.61,169.068 C210.814,169.068 210.051,169.384 209.489,169.947 C208.926,170.509 208.61,171.272 208.61,172.068 C208.61,172.863 208.926,173.627 209.489,174.189 C210.051,174.752 210.814,175.068 211.61,175.068 z" fill="#E03E34"/>
      <path d="M211.61,175.068 C212.406,175.068 213.169,174.752 213.731,174.189 C214.294,173.627 214.61,172.863 214.61,172.068 C214.61,171.272 214.294,170.509 213.731,169.947 C213.169,169.384 212.406,169.068 211.61,169.068 C210.814,169.068 210.051,169.384 209.489,169.947 C208.926,170.509 208.61,171.272 208.61,172.068 C208.61,172.863 208.926,173.627 209.489,174.189 C210.051,174.752 210.814,175.068 211.61,175.068 z" fill-opacity="0" stroke="#E03E34" stroke-width="1" stroke-linejoin="round"/>
    </g>
    <g>
      <path d="M257.433,163.623 C258.229,163.623 258.992,163.307 259.555,162.744 C260.117,162.182 260.433,161.419 260.433,160.623 C260.433,159.827 260.117,159.064 259.555,158.502 C258.992,157.939 258.229,157.623 257.433,157.623 C256.638,157.623 255.875,157.939 255.312,158.502 C254.749,159.064 254.433,159.827 254.433,160.623 C254.433,161.419 254.749,162.182 255.312,162.744 C255.875,163.307 256.638,163.623 257.433,163.623 z" fill="#E03E34"/>
      <path d="M257.433,163.623 C258.229,163.623 258.992,163.307 259.555,162.744 C260.117,162.182 260.433,161.419 260.433,160.623 C260.433,159.827 260.117,159.064 259.555,158.502 C258.992,157.939 258.229,157.623 257.433,157.623 C256.638,157.623 255.875,157.939 255.312,158.502 C254.749,159.064 254.433,159.827 254.433,160.623 C254.433,161.419 254.749,162.182 255.312,162.744 C255.875,163.307 256.638,163.623 257.433,163.623 z" fill-opacity="0" stroke="#E03E34" stroke-width="1" stroke-linejoin="round"/>
    </g>
    <g>
      <path d="M302.369,161.194 C303.165,161.194 303.928,160.878 304.491,160.315 C305.053,159.753 305.369,158.99 305.369,158.194 C305.369,157.398 305.053,156.635 304.491,156.073 C303.928,155.51 303.165,155.194 302.369,155.194 C301.574,155.194 300.811,155.51 300.248,156.073 C299.686,156.635 299.369,157.398 299.369,158.194 C299.369,158.99 299.686,159.753 300.248,160.315 C300.811,160.878 301.574,161.194 302.369,161.194 z" fill="#E03E34"/>
      <path d="M302.369,161.194 C303.165,161.194 303.928,160.878 304.491,160.315 C305.053,159.753 305.369,158.99 305.369,158.194 C305.369,157.398 305.053,156.635 304.491,156.073 C303.928,155.51 303.165,155.194 302.369,155.194 C301.574,155.194 300.811,155.51 300.248,156.073 C299.686,156.635 299.369,157.398 299.369,158.194 C299.369,158.99 299.686,159.753 300.248,160.315 C300.811,160.878 301.574,161.194 302.369,161.194 z" fill-opacity="0" stroke="#E03E34" stroke-width="1" stroke-linejoin="round"/>
    </g>
    <path d="M237.802,235.691 L276.626,217.894 L319.402,203.109" fill-opacity="0" stroke="#FF930B" stroke-width="2" stroke-linecap="square" stroke-linejoin="round"/>
    <g>
      <path d="M237.802,238.691 C238.598,238.691 239.361,238.375 239.924,237.813 C240.486,237.25 240.802,236.487 240.802,235.691 C240.802,234.896 240.486,234.133 239.924,233.57 C239.361,233.007 238.598,232.691 237.802,232.691 C237.007,232.691 236.244,233.007 235.681,233.57 C235.119,234.133 234.802,234.896 234.802,235.691 C234.802,236.487 235.119,237.25 235.681,237.813 C236.244,238.375 237.007,238.691 237.802,238.691 z" fill="#FF930B"/>
      <path d="M237.802,238.691 C238.598,238.691 239.361,238.375 239.924,237.813 C240.486,237.25 240.802,236.487 240.802,235.691 C240.802,234.896 240.486,234.133 239.924,233.57 C239.361,233.007 238.598,232.691 237.802,232.691 C237.007,232.691 236.244,233.007 235.681,233.57 C235.119,234.133 234.802,234.896 234.802,235.691 C234.802,236.487 235.119,237.25 235.681,237.813 C236.244,238.375 237.007,238.691 237.802,238.691 z" fill-opacity="0" stroke="#FF930B" stroke-width="1" stroke-linejoin="round"/>
    </g>
    <g>
      <path d="M276.626,220.894 C277.421,220.894 278.185,220.577 278.747,220.015 C279.31,219.452 279.626,218.689 279.626,217.894 C279.626,217.098 279.31,216.335 278.747,215.772 C278.185,215.21 277.421,214.894 276.626,214.894 C275.83,214.894 275.067,215.21 274.504,215.772 C273.942,216.335 273.626,217.098 273.626,217.894 C273.626,218.689 273.942,219.452 274.504,220.015 C275.067,220.577 275.83,220.894 276.626,220.894 z" fill="#FF930B"/>
      <path d="M276.626,220.894 C277.421,220.894 278.185,220.577 278.747,220.015 C279.31,219.452 279.626,218.689 279.626,217.894 C279.626,217.098 279.31,216.335 278.747,215.772 C278.185,215.21 277.421,214.894 276.626,214.894 C275.83,214.894 275.067,215.21 274.504,215.772 C273.942,216.335 273.626,217.098 273.626,217.894 C273.626,218.689 273.942,219.452 274.504,220.015 C275.067,220.577 275.83,220.894 276.626,220.894 z" fill-opacity="0" stroke="#FF930B" stroke-width="1" stroke-linejoin="round"/>
    </g>
    <g>
      <path d="M319.402,206.109 C320.198,206.109 320.961,205.793 321.523,205.23 C322.086,204.668 322.402,203.904 322.402,203.109 C322.402,202.313 322.086,201.55 321.523,200.988 C320.961,200.425 320.198,200.109 319.402,200.109 C318.607,200.109 317.843,200.425 317.281,200.988 C316.718,201.55 316.402,202.313 316.402,203.109 C316.402,203.904 316.718,204.668 317.281,205.23 C317.843,205.793 318.607,206.109 319.402,206.109 z" fill="#FF930B"/>
      <path d="M319.402,206.109 C320.198,206.109 320.961,205.793 321.523,205.23 C322.086,204.668 322.402,203.904 322.402,203.109 C322.402,202.313 322.086,201.55 321.523,200.988 C320.961,200.425 320.198,200.109 319.402,200.109 C318.607,200.109 317.843,200.425 317.281,200.988 C316.718,201.55 316.402,202.313 316.402,203.109 C316.402,203.904 316.718,204.668 317.281,205.23 C317.843,205.793 318.607,206.109 319.402,206.109 z" fill-opacity="0" stroke="#FF930B" stroke-width="1" stroke-linejoin="round"/>
    </g>
    <g>
      <g>
        <path d="M400.051,150.123 C400.846,150.123 401.61,149.807 402.172,149.244 C402.735,148.682 403.051,147.919 403.051,147.123 C403.051,146.327 402.735,145.564 402.172,145.002 C401.61,144.439 400.846,144.123 400.051,144.123 C399.255,144.123 398.492,144.439 397.93,145.002 C397.367,145.564 397.051,146.327 397.051,147.123 C397.051,147.919 397.367,148.682 397.93,149.244 C398.492,149.807 399.255,150.123 400.051,150.123 z" fill="#238BC1"/>
        <path d="M400.051,150.123 C400.846,150.123 401.61,149.807 402.172,149.244 C402.735,148.682 403.051,147.919 403.051,147.123 C403.051,146.327 402.735,145.564 402.172,145.002 C401.61,144.439 400.846,144.123 400.051,144.123 C399.255,144.123 398.492,144.439 397.93,145.002 C397.367,145.564 397.051,146.327 397.051,147.123 C397.051,147.919 397.367,148.682 397.93,149.244 C398.492,149.807 399.255,150.123 400.051,150.123 z" fill-opacity="0" stroke="#238BC1" stroke-width="1" stroke-linejoin="round"/>
      </g>
    </g>
    <g>
      <g>
        <path d="M302.369,149.819 C303.165,149.819 303.928,149.503 304.491,148.941 C305.053,148.378 305.369,147.615 305.369,146.819 C305.369,146.024 305.053,145.261 304.491,144.698 C303.928,144.135 303.165,143.819 302.369,143.819 C301.574,143.819 300.811,144.135 300.248,144.698 C299.686,145.261 299.369,146.024 299.369,146.819 C299.369,147.615 299.686,148.378 300.248,148.941 C300.811,149.503 301.574,149.819 302.369,149.819 z" fill="#E03E34"/>
        <path d="M302.369,149.819 C303.165,149.819 303.928,149.503 304.491,148.941 C305.053,148.378 305.369,147.615 305.369,146.819 C305.369,146.024 305.053,145.261 304.491,144.698 C303.928,144.135 303.165,143.819 302.369,143.819 C301.574,143.819 300.811,144.135 300.248,144.698 C299.686,145.261 299.369,146.024 299.369,146.819 C299.369,147.615 299.686,148.378 300.248,148.941 C300.811,149.503 301.574,149.819 302.369,149.819 z" fill-opacity="0" stroke="#E03E34" stroke-width="1" stroke-linejoin="round"/>
      </g>
    </g>
    <path d="M25.85,262.225 L25.85,122.085" fill-opacity="0" stroke="#000000" stroke-width="1.5" stroke-linecap="square"/>
    <path d="M25.85,262.225 L417.87,262.225" fill-opacity="0" stroke="#000000" stroke-width="1.5" stroke-linecap="square"/>
    <path d="M86.958,101.805 L86.958,19.265" fill-opacity="0" stroke="#BEBEBE" stroke-width="1" stroke-linecap="square" stroke-linejoin="round"/>
    <path d="M233.154,101.805 L233.154,19.265" fill-opacity="0" stroke="#BEBEBE" stroke-width="1" stroke-linecap="square" stroke-linejoin="round"/>
    <path d="M379.349,101.805 L379.349,19.265" fill-opacity="0" stroke="#BEBEBE" stroke-width="1" stroke-linecap="square" stroke-linejoin="round"/>
    <g clip-path="url(#Clip_7)">
      <path d="M25.13,81.17 L417.15,81.17" fill-opacity="0" stroke="#BEBEBE" stroke-width="1" stroke-linecap="square" stroke-linejoin="round"/>
    </g>
    <g>
      <path d="M25.13,81.17 L21.63,81.17" fill="#000000"/>
      <path d="M25.13,81.17 L21.63,81.17" fill-opacity="0" stroke="#000000" stroke-width="0.8" stroke-linejoin="round"/>
    </g>
    <text transform="matrix(1, 0, 0, 1, 9.63, 81.724)">
      <tspan x="-8" y="4.5" font-family="TimesNewRomanPSMT" font-size="16" fill="#000000">3</tspan>
      <tspan x="0" y="4.5" font-family="TimesNewRomanPSMT" font-size="16" kerning="0" fill="#000000">6</tspan>
    </text>
    <g clip-path="url(#Clip_8)">
      <path d="M25.13,39.9 L417.15,39.9" fill-opacity="0" stroke="#BEBEBE" stroke-width="1" stroke-linecap="square" stroke-linejoin="round"/>
    </g>
    <g>
      <path d="M25.13,39.9 L21.63,39.9" fill="#000000"/>
      <path d="M25.13,39.9 L21.63,39.9" fill-opacity="0" stroke="#000000" stroke-width="0.8" stroke-linejoin="round"/>
    </g>
    <text transform="matrix(1, 0, 0, 1, 9.63, 40.454)">
      <tspan x="-8" y="4.5" font-family="TimesNewRomanPSMT" font-size="16" fill="#000000">3</tspan>
      <tspan x="0" y="4.5" font-family="TimesNewRomanPSMT" font-size="16" kerning="0" fill="#000000">8</tspan>
    </text>
    <text transform="matrix(1, 0, -0, 1, 38.306, 9.5)">
      <tspan x="-36.676" y="4.5" font-family="TimesNewRomanPSMT" font-size="16" fill="#000000">PSNR (dB</tspan>
      <tspan x="31.348" y="4.5" font-family="TimesNewRomanPSMT" font-size="16" kerning="0" fill="#000000">)</tspan>
    </text>
    <g>
      <g>
        <path d="M92.668,37.741 C93.463,37.741 94.227,37.425 94.789,36.862 C95.352,36.3 95.668,35.536 95.668,34.741 C95.668,33.945 95.352,33.182 94.789,32.619 C94.227,32.057 93.463,31.741 92.668,31.741 C91.872,31.741 91.109,32.057 90.546,32.619 C89.984,33.182 89.668,33.945 89.668,34.741 C89.668,35.536 89.984,36.3 90.546,36.862 C91.109,37.425 91.872,37.741 92.668,37.741 z" fill="#E03E34"/>
        <path d="M92.668,37.741 C93.463,37.741 94.227,37.425 94.789,36.862 C95.352,36.3 95.668,35.536 95.668,34.741 C95.668,33.945 95.352,33.182 94.789,32.619 C94.227,32.057 93.463,31.741 92.668,31.741 C91.872,31.741 91.109,32.057 90.546,32.619 C89.984,33.182 89.668,33.945 89.668,34.741 C89.668,35.536 89.984,36.3 90.546,36.862 C91.109,37.425 91.872,37.741 92.668,37.741 z" fill-opacity="0" stroke="#E03E34" stroke-width="1" stroke-linejoin="round"/>
      </g>
    </g>
    <g>
      <g>
        <path d="M400.051,52 C400.847,52 401.61,51.683 402.172,51.121 C402.735,50.558 403.051,49.795 403.051,49 C403.051,48.204 402.735,47.441 402.172,46.878 C401.61,46.316 400.847,46 400.051,46 C399.255,46 398.492,46.316 397.93,46.878 C397.367,47.441 397.051,48.204 397.051,49 C397.051,49.795 397.367,50.558 397.93,51.121 C398.492,51.683 399.255,52 400.051,52 z" fill="#238BC1"/>
        <path d="M400.051,52 C400.847,52 401.61,51.683 402.172,51.121 C402.735,50.558 403.051,49.795 403.051,49 C403.051,48.204 402.735,47.441 402.172,46.878 C401.61,46.316 400.847,46 400.051,46 C399.255,46 398.492,46.316 397.93,46.878 C397.367,47.441 397.051,48.204 397.051,49 C397.051,49.795 397.367,50.558 397.93,51.121 C398.492,51.683 399.255,52 400.051,52 z" fill-opacity="0" stroke="#238BC1" stroke-width="1" stroke-linejoin="round"/>
      </g>
    </g>
    <g>
      <g>
        <path d="M42.949,93.27 C43.745,93.27 44.508,92.953 45.07,92.391 C45.633,91.828 45.949,91.065 45.949,90.27 C45.949,89.474 45.633,88.711 45.07,88.148 C44.508,87.586 43.745,87.27 42.949,87.27 C42.153,87.27 41.39,87.586 40.828,88.148 C40.265,88.711 39.949,89.474 39.949,90.27 C39.949,91.065 40.265,91.828 40.828,92.391 C41.39,92.953 42.153,93.27 42.949,93.27 z" fill="#32AC3A"/>
        <path d="M42.949,93.27 C43.745,93.27 44.508,92.953 45.07,92.391 C45.633,91.828 45.949,91.065 45.949,90.27 C45.949,89.474 45.633,88.711 45.07,88.148 C44.508,87.586 43.745,87.27 42.949,87.27 C42.153,87.27 41.39,87.586 40.828,88.148 C40.265,88.711 39.949,89.474 39.949,90.27 C39.949,91.065 40.265,91.828 40.828,92.391 C41.39,92.953 42.153,93.27 42.949,93.27 z" fill-opacity="0" stroke="#32AC3A" stroke-width="1" stroke-linejoin="round"/>
      </g>
    </g>
    <path d="M25.13,101.805 L25.13,19.265" fill-opacity="0" stroke="#000000" stroke-width="1.5" stroke-linecap="square"/>
    <path d="M31.64,107.62 C31.64,107.181 31.521,106.982 31.361,106.982 C31.262,106.982 31.102,107.122 31.082,107.5 C31.003,109.413 29.687,110.509 28.293,110.509 C27.037,110.509 26.081,109.652 25.105,108.795 C24.088,107.879 23.052,106.962 21.697,106.962 C19.526,106.962 18.35,109.154 18.35,110.967 C18.35,111.605 18.609,111.605 18.629,111.605 C18.848,111.605 18.908,111.206 18.908,111.146 C18.988,108.955 20.482,108.078 21.697,108.078 C22.953,108.078 23.909,108.935 24.885,109.792 C25.902,110.708 26.938,111.625 28.293,111.625 C30.465,111.625 31.64,109.433 31.64,107.62 z" fill="#000000" id="Layer_1"/>
    <path d="M31.64,112.3 C31.64,111.861 31.521,111.662 31.361,111.662 C31.262,111.662 31.102,111.801 31.082,112.18 C31.003,114.093 29.687,115.189 28.293,115.189 C27.037,115.189 26.081,114.332 25.105,113.475 C24.088,112.559 23.052,111.642 21.697,111.642 C19.526,111.642 18.35,113.834 18.35,115.647 C18.35,116.285 18.609,116.285 18.629,116.285 C18.848,116.285 18.908,115.886 18.908,115.826 C18.988,113.635 20.482,112.758 21.697,112.758 C22.953,112.758 23.909,113.615 24.885,114.471 C25.902,115.388 26.938,116.305 28.293,116.305 C30.465,116.305 31.64,114.113 31.64,112.3 z" fill="#000000" id="Layer_1"/>
    <text transform="matrix(1, 0, 0, 1, 160.114, 184.068)">
      <tspan x="-15.555" y="4.5" font-family="TimesNewRomanPSMT" font-size="16" fill="#E03E34">Ours</tspan>
    </text>
    <text transform="matrix(1, 0, 0, 1, 215.416, 222.691)">
      <tspan x="-24.887" y="4.5" font-family="TimesNewRomanPSMT" font-size="16" fill="#FF930B">AutoInt</tspan>
    </text>
    <text transform="matrix(1, 0, 0, 1, 389.982, 160.123)">
      <tspan x="-19.113" y="4.5" font-family="TimesNewRomanPSMT" font-size="16" fill="#238BC1">NeRF</tspan>
    </text>
    <text transform="matrix(1, 0, 0, 1, 337.597, 133.819)">
      <tspan x="-55.973" y="4.5" font-family="TimesNewRomanPSMT" font-size="16" fill="#E03E34">Ours (w/ teacher)</tspan>
    </text>
    <text transform="matrix(1, 0, 0, 1, 389.982, 62.724)">
      <tspan x="-19.113" y="4.5" font-family="TimesNewRomanPSMT" font-size="16" fill="#238BC1">NeRF</tspan>
    </text>
    <text transform="matrix(1, 0, 0, 1, 114.957, 32.706)">
      <tspan x="-15.555" y="4.5" font-family="TimesNewRomanPSMT" font-size="16" fill="#E03E34">Ours</tspan>
    </text>
    <text transform="matrix(1, 0, 0, 1, 77.113, 91.805)">
      <tspan x="-28" y="4.5" font-family="TimesNewRomanPSMT" font-size="16" fill="#32AC3A">X-Fields</tspan>
    </text>
    <g id="Layer_1">
      <path d="M183.001,209.509 L181.375,209.509 L181.375,202.416 L180.674,202.416 L175.669,209.509 L175.669,210.529 L180.148,210.529 L180.148,213.191 L181.375,213.191 L181.375,210.529 L183.001,210.529 z M180.132,209.509 L176.306,209.509 L180.132,204.042 z" fill="#E03E34"/>
      <path d="M185.252,202.716 C185.948,202.716 186.219,202.74 186.502,202.846 C187.233,203.106 187.694,203.778 187.694,204.592 C187.694,205.583 187.021,206.349 186.148,206.349 C185.83,206.349 185.594,206.267 185.157,205.984 C184.804,205.771 184.603,205.689 184.403,205.689 C184.131,205.689 183.954,205.854 183.954,206.102 C183.954,206.515 184.462,206.774 185.287,206.774 C186.195,206.774 187.127,206.467 187.682,205.984 C188.236,205.5 188.543,204.816 188.543,204.026 C188.543,203.424 188.354,202.87 188.012,202.504 C187.776,202.245 187.552,202.103 187.033,201.879 C187.847,201.324 188.142,200.888 188.142,200.251 C188.142,199.296 187.387,198.635 186.302,198.635 C185.712,198.635 185.193,198.836 184.768,199.213 C184.414,199.532 184.237,199.838 183.978,200.546 L184.155,200.593 C184.638,199.732 185.169,199.343 185.912,199.343 C186.679,199.343 187.21,199.862 187.21,200.605 C187.21,201.03 187.033,201.454 186.738,201.749 C186.384,202.103 186.054,202.28 185.252,202.563 z" fill="#E03E34"/>
    </g>
    <g id="Layer_1">
      <path d="M216.85,185.321 C218.428,184.476 218.986,183.806 218.986,182.722 C218.986,181.415 217.838,180.459 216.244,180.459 C214.506,180.459 213.215,181.527 213.215,182.977 C213.215,184.013 213.518,184.476 215.192,185.942 C213.47,187.249 213.12,187.743 213.12,188.827 C213.12,190.374 214.379,191.458 216.18,191.458 C218.093,191.458 219.32,190.406 219.32,188.764 C219.32,187.536 218.778,186.755 216.85,185.321 z M216.563,186.962 C217.726,187.791 218.109,188.365 218.109,189.258 C218.109,190.294 217.392,191.011 216.356,191.011 C215.144,191.011 214.331,190.087 214.331,188.7 C214.331,187.68 214.682,187.01 215.606,186.261 z M216.387,185.034 C214.969,184.109 214.395,183.376 214.395,182.483 C214.395,181.559 215.112,180.905 216.116,180.905 C217.2,180.905 217.886,181.607 217.886,182.706 C217.886,183.615 217.439,184.332 216.531,184.938 C216.451,184.986 216.451,184.986 216.387,185.034 z" fill="#E03E34"/>
      <path d="M222.001,180.759 C222.697,180.759 222.969,180.783 223.252,180.889 C223.983,181.149 224.443,181.821 224.443,182.635 C224.443,183.626 223.771,184.392 222.898,184.392 C222.579,184.392 222.343,184.31 221.907,184.027 C221.553,183.814 221.353,183.732 221.152,183.732 C220.881,183.732 220.704,183.897 220.704,184.145 C220.704,184.558 221.211,184.817 222.037,184.817 C222.945,184.817 223.877,184.51 224.431,184.027 C224.986,183.543 225.292,182.859 225.292,182.069 C225.292,181.467 225.104,180.913 224.762,180.547 C224.526,180.288 224.302,180.146 223.783,179.922 C224.596,179.368 224.891,178.931 224.891,178.294 C224.891,177.339 224.136,176.678 223.051,176.678 C222.461,176.678 221.942,176.879 221.518,177.256 C221.164,177.575 220.987,177.881 220.727,178.589 L220.904,178.636 C221.388,177.775 221.919,177.386 222.662,177.386 C223.429,177.386 223.959,177.905 223.959,178.648 C223.959,179.073 223.783,179.497 223.488,179.792 C223.134,180.146 222.803,180.323 222.001,180.606 z" fill="#E03E34"/>
    </g>
    <g id="Layer_1">
      <path d="M256.728,167.959 L253.859,169.409 L253.859,169.633 C254.05,169.553 254.225,169.489 254.289,169.457 C254.576,169.346 254.847,169.282 255.006,169.282 C255.341,169.282 255.485,169.521 255.485,170.031 L255.485,177.252 C255.485,177.778 255.357,178.145 255.102,178.288 C254.863,178.432 254.64,178.479 253.97,178.495 L253.97,178.734 L258.37,178.734 L258.37,178.495 C257.11,178.479 256.855,178.32 256.855,177.555 L256.855,167.991 z" fill="#E03E34"/>
      <path d="M267.169,167.831 C265.351,167.991 264.427,168.294 263.263,169.107 C261.542,170.334 260.601,172.151 260.601,174.287 C260.601,175.674 261.032,177.077 261.717,177.874 C262.323,178.575 263.184,178.958 264.172,178.958 C266.148,178.958 267.519,177.443 267.519,175.243 C267.519,173.203 266.356,171.912 264.523,171.912 C263.821,171.912 263.486,172.024 262.482,172.629 C262.913,170.222 264.698,168.501 267.201,168.086 z M263.917,172.645 C265.288,172.645 266.085,173.793 266.085,175.785 C266.085,177.539 265.463,178.511 264.347,178.511 C262.945,178.511 262.084,177.013 262.084,174.542 C262.084,173.729 262.211,173.283 262.53,173.044 C262.865,172.789 263.359,172.645 263.917,172.645 z" fill="#E03E34"/>
      <path d="M269.835,168.259 C270.531,168.259 270.802,168.283 271.085,168.389 C271.816,168.649 272.277,169.321 272.277,170.135 C272.277,171.126 271.604,171.892 270.731,171.892 C270.413,171.892 270.177,171.81 269.74,171.527 C269.387,171.314 269.186,171.232 268.986,171.232 C268.714,171.232 268.537,171.397 268.537,171.645 C268.537,172.058 269.044,172.317 269.87,172.317 C270.778,172.317 271.71,172.01 272.265,171.527 C272.819,171.043 273.126,170.359 273.126,169.569 C273.126,168.967 272.937,168.413 272.595,168.047 C272.359,167.788 272.135,167.646 271.616,167.422 C272.43,166.868 272.725,166.431 272.725,165.794 C272.725,164.839 271.97,164.178 270.885,164.178 C270.295,164.178 269.776,164.379 269.351,164.756 C268.997,165.075 268.82,165.381 268.561,166.089 L268.738,166.136 C269.221,165.275 269.752,164.886 270.495,164.886 C271.262,164.886 271.793,165.405 271.793,166.148 C271.793,166.573 271.616,166.997 271.321,167.292 C270.967,167.646 270.637,167.823 269.835,168.106 z" fill="#E03E34"/>
    </g>
    <g id="Layer_1">
      <path d="M299.249,171.195 C300.189,171.195 300.556,171.227 300.939,171.37 C301.927,171.721 302.548,172.629 302.548,173.729 C302.548,175.068 301.64,176.104 300.46,176.104 C300.03,176.104 299.711,175.993 299.121,175.61 C298.643,175.323 298.372,175.212 298.101,175.212 C297.735,175.212 297.495,175.435 297.495,175.77 C297.495,176.327 298.181,176.678 299.297,176.678 C300.524,176.678 301.783,176.264 302.533,175.61 C303.282,174.957 303.696,174.032 303.696,172.964 C303.696,172.151 303.441,171.402 302.979,170.908 C302.66,170.557 302.357,170.366 301.656,170.063 C302.756,169.314 303.154,168.724 303.154,167.863 C303.154,166.572 302.134,165.679 300.668,165.679 C299.871,165.679 299.169,165.95 298.595,166.46 C298.117,166.891 297.878,167.305 297.527,168.262 L297.766,168.325 C298.42,167.162 299.137,166.636 300.142,166.636 C301.178,166.636 301.895,167.337 301.895,168.341 C301.895,168.915 301.656,169.489 301.257,169.888 C300.779,170.366 300.333,170.605 299.249,170.987 z" fill="#E03E34"/>
      <path d="M312.352,174.271 L312.144,174.191 C311.555,175.1 311.347,175.243 310.63,175.243 L306.82,175.243 L309.498,172.438 C310.917,170.956 311.539,169.744 311.539,168.501 C311.539,166.907 310.248,165.679 308.59,165.679 C307.713,165.679 306.884,166.03 306.294,166.668 C305.784,167.21 305.545,167.72 305.274,168.851 L305.609,168.931 C306.247,167.369 306.82,166.859 307.92,166.859 C309.259,166.859 310.168,167.768 310.168,169.107 C310.168,170.35 309.435,171.832 308.096,173.251 L305.258,176.264 L305.258,176.455 L311.475,176.455 z" fill="#E03E34"/>
      <path d="M314.556,165.98 C315.251,165.98 315.523,166.004 315.806,166.11 C316.537,166.369 316.997,167.042 316.997,167.855 C316.997,168.846 316.325,169.613 315.452,169.613 C315.134,169.613 314.898,169.53 314.461,169.247 C314.107,169.035 313.907,168.952 313.706,168.952 C313.435,168.952 313.258,169.118 313.258,169.365 C313.258,169.778 313.765,170.038 314.591,170.038 C315.499,170.038 316.431,169.731 316.985,169.247 C317.54,168.764 317.847,168.08 317.847,167.289 C317.847,166.688 317.658,166.133 317.316,165.768 C317.08,165.508 316.856,165.367 316.337,165.142 C317.151,164.588 317.445,164.152 317.445,163.515 C317.445,162.559 316.691,161.899 315.605,161.899 C315.016,161.899 314.497,162.099 314.072,162.477 C313.718,162.795 313.541,163.102 313.282,163.81 L313.459,163.857 C313.942,162.996 314.473,162.606 315.216,162.606 C315.983,162.606 316.514,163.125 316.514,163.869 C316.514,164.293 316.337,164.718 316.042,165.013 C315.688,165.367 315.358,165.544 314.556,165.827 z" fill="#E03E34"/>
    </g>
    <path d="M247.197,244.889 C248.775,244.073 249.333,243.426 249.333,242.379 C249.333,241.116 248.185,240.191 246.591,240.191 C244.853,240.191 243.562,241.223 243.562,242.625 C243.562,243.626 243.865,244.073 245.539,245.49 C243.817,246.753 243.467,247.231 243.467,248.278 C243.467,249.772 244.726,250.819 246.527,250.819 C248.44,250.819 249.667,249.803 249.667,248.216 C249.667,247.03 249.125,246.276 247.197,244.889 z M246.91,246.476 C248.073,247.277 248.456,247.831 248.456,248.694 C248.456,249.695 247.739,250.388 246.702,250.388 C245.491,250.388 244.678,249.495 244.678,248.155 C244.678,247.169 245.029,246.522 245.953,245.798 z M246.734,244.612 C245.316,243.719 244.742,243.01 244.742,242.148 C244.742,241.254 245.459,240.623 246.463,240.623 C247.547,240.623 248.233,241.3 248.233,242.363 C248.233,243.241 247.786,243.934 246.878,244.52 C246.798,244.566 246.798,244.566 246.734,244.612 z" fill="#FF930B" id="Layer_1"/>
    <g id="Layer_1">
      <path d="M280.311,223.193 L277.442,224.643 L277.442,224.866 C277.633,224.787 277.809,224.723 277.872,224.691 C278.159,224.579 278.43,224.516 278.59,224.516 C278.924,224.516 279.068,224.755 279.068,225.265 L279.068,232.486 C279.068,233.012 278.94,233.378 278.685,233.522 C278.446,233.665 278.223,233.713 277.554,233.729 L277.554,233.968 L281.953,233.968 L281.953,233.729 C280.694,233.713 280.439,233.554 280.439,232.789 L280.439,223.225 z" fill="#FF930B"/>
      <path d="M290.752,223.065 C288.935,223.225 288.01,223.527 286.847,224.34 C285.125,225.568 284.185,227.385 284.185,229.521 C284.185,230.908 284.615,232.31 285.3,233.107 C285.906,233.809 286.767,234.191 287.755,234.191 C289.732,234.191 291.103,232.677 291.103,230.477 C291.103,228.437 289.939,227.146 288.106,227.146 C287.405,227.146 287.07,227.257 286.066,227.863 C286.496,225.456 288.281,223.735 290.784,223.32 z M287.5,227.879 C288.871,227.879 289.668,229.027 289.668,231.019 C289.668,232.773 289.046,233.745 287.931,233.745 C286.528,233.745 285.667,232.247 285.667,229.776 C285.667,228.963 285.795,228.517 286.113,228.278 C286.448,228.023 286.942,227.879 287.5,227.879 z" fill="#FF930B"/>
    </g>
    <g id="Layer_1">
      <path d="M319.6,215.582 C320.54,215.582 320.907,215.614 321.29,215.757 C322.278,216.108 322.9,217.016 322.9,218.116 C322.9,219.455 321.991,220.491 320.811,220.491 C320.381,220.491 320.062,220.38 319.472,219.997 C318.994,219.71 318.723,219.599 318.452,219.599 C318.086,219.599 317.847,219.822 317.847,220.157 C317.847,220.714 318.532,221.065 319.648,221.065 C320.875,221.065 322.134,220.651 322.884,219.997 C323.633,219.344 324.047,218.419 324.047,217.351 C324.047,216.538 323.792,215.789 323.33,215.295 C323.011,214.944 322.708,214.753 322.007,214.45 C323.107,213.701 323.505,213.111 323.505,212.25 C323.505,210.959 322.485,210.066 321.019,210.066 C320.222,210.066 319.52,210.337 318.946,210.847 C318.468,211.278 318.229,211.692 317.878,212.649 L318.117,212.712 C318.771,211.549 319.488,211.023 320.493,211.023 C321.529,211.023 322.246,211.724 322.246,212.728 C322.246,213.302 322.007,213.876 321.608,214.275 C321.13,214.753 320.684,214.992 319.6,215.374 z" fill="#FF930B"/>
      <path d="M332.703,218.658 L332.496,218.578 C331.906,219.487 331.699,219.631 330.981,219.631 L327.172,219.631 L329.849,216.825 C331.268,215.343 331.89,214.131 331.89,212.888 C331.89,211.294 330.599,210.066 328.941,210.066 C328.064,210.066 327.235,210.417 326.645,211.055 C326.135,211.597 325.896,212.107 325.625,213.239 L325.96,213.318 C326.598,211.756 327.172,211.246 328.271,211.246 C329.61,211.246 330.519,212.155 330.519,213.494 C330.519,214.737 329.786,216.219 328.447,217.638 L325.609,220.651 L325.609,220.842 L331.826,220.842 z" fill="#FF930B"/>
    </g>
    <text transform="matrix(1, 0, 0, 1, 154.422, 133.819)">
      <tspan x="-117.973" y="4.5" font-family="TimesNewRomanPSMT" font-size="16" fill="#828282">Sparse (NeRF Real Forward-Facing)</tspan>
    </text>
    <text transform="matrix(1, 0, 0, 1, 316.334, 91.805)">
      <tspan x="-95.762" y="4.5" font-family="TimesNewRomanPSMT" font-size="16" fill="#828282">Dense (Stanford Light Fields)</tspan>
    </text>
  </g>
</svg>
